<?xml version="1.0" encoding="UTF-8"?>
<svg version="1.1" xmlns="http://www.w3.org/2000/svg" width="50" height="50">
<path d="M0 0 C-0.33 0.99 -0.66 1.98 -1 3 C-3.5625 4.1875 -3.5625 4.1875 -6 5 C-6.64330661 13.69811075 -6.64330661 13.69811075 -4.4375 21.9375 C-3 25 -3 25 -2.8125 28.125 C-4.35266753 31.85382665 -6.29912322 32.80660427 -9.796875 34.62890625 C-12.6947544 36.31687966 -12.6947544 36.31687966 -17 41 C-5.78 41 5.44 41 17 41 C12.61871174 36.53852824 12.61871174 36.53852824 7.75 33.625 C4.46230784 31.65487067 4.10084367 31.30253101 2.8125 27.4375 C3.01111901 23.79615157 3.3499109 22.4537862 6 20 C6.66 20 7.32 20 8 20 C7.67 23.3 7.34 26.6 7 30 C7.86625 30.2475 8.7325 30.495 9.625 30.75 C13.32400073 32.12000027 15.97487964 33.45614879 19 36 C19.66 38.31 20.32 40.62 21 43 C7.14 43 -6.72 43 -21 43 C-19 36 -19 36 -17.1953125 34.2578125 C-16.51210938 33.88398437 -15.82890625 33.51015625 -15.125 33.125 C-14.44695313 32.73570313 -13.76890625 32.34640625 -13.0703125 31.9453125 C-11.05422124 31.02475762 -9.16416846 30.45612519 -7 30 C-7.30798326 28.51988629 -7.621518 27.04092675 -7.9375 25.5625 C-8.11152344 24.73878906 -8.28554687 23.91507813 -8.46484375 23.06640625 C-8.80752994 21.02338796 -8.80752994 21.02338796 -10 20 C-10.18062277 17.37948926 -10.27807881 14.81039474 -10.3125 12.1875 C-10.34150391 11.46240234 -10.37050781 10.73730469 -10.40039062 9.99023438 C-10.44254308 6.44618525 -10.2951594 4.40560614 -8.18359375 1.50390625 C-5.33244809 -0.45976295 -3.38745482 -0.30795044 0 0 Z " fill="#000000" transform="translate(22,5)"/>
<path d="M0 0 C7.59 0 15.18 0 23 0 C23 5.61 23 11.22 23 17 C19.37 17 15.74 17 12 17 C11.34 18.32 10.68 19.64 10 21 C7.375 21.75 7.375 21.75 5 22 C5 20.35 5 18.7 5 17 C3.35 17 1.7 17 0 17 C0 11.39 0 5.78 0 0 Z M2 3 C1.92773498 4.85287502 1.9161878 6.70833878 1.9375 8.5625 C1.94652344 9.57441406 1.95554687 10.58632812 1.96484375 11.62890625 C1.97644531 12.41136719 1.98804687 13.19382812 2 14 C5.465 15.485 5.465 15.485 9 17 C9 16.34 9 15.68 9 15 C10.17369141 15.01740234 10.17369141 15.01740234 11.37109375 15.03515625 C12.38300781 15.04417969 13.39492188 15.05320312 14.4375 15.0625 C15.95150391 15.07990234 15.95150391 15.07990234 17.49609375 15.09765625 C19.94021067 15.28612676 19.94021067 15.28612676 21 14 C21.09851171 12.16884117 21.12972629 10.33380067 21.125 8.5 C21.12757812 7.4996875 21.13015625 6.499375 21.1328125 5.46875 C21.27870382 3.05600378 21.27870382 3.05600378 20 2 C17.15664952 1.90013025 14.34302837 1.86122119 11.5 1.875 C10.70207031 1.87113281 9.90414062 1.86726562 9.08203125 1.86328125 C5.2316068 1.4910039 5.2316068 1.4910039 2 3 Z " fill="#000000" transform="translate(23,1)"/>
<path d="M0 0 C2.31 0 4.62 0 7 0 C7 0.66 7 1.32 7 2 C4.69 2 2.38 2 0 2 C0 1.34 0 0.68 0 0 Z " fill="#000000" transform="translate(34,11)"/>
<path d="M0 0 C2.31 0 4.62 0 7 0 C7 0.66 7 1.32 7 2 C4.69 2 2.38 2 0 2 C0 1.34 0 0.68 0 0 Z " fill="#000000" transform="translate(29,6)"/>
<path d="M0 0 C0.99 0 1.98 0 3 0 C3 0.66 3 1.32 3 2 C2.01 2 1.02 2 0 2 C0 1.34 0 0.68 0 0 Z " fill="#000000" transform="translate(29,11)"/>
<path d="M0 0 C0.99 0 1.98 0 3 0 C3 0.66 3 1.32 3 2 C2.01 2 1.02 2 0 2 C0 1.34 0 0.68 0 0 Z " fill="#000000" transform="translate(38,6)"/>
</svg>
