<?xml version="1.0" standalone="no"?>
<!DOCTYPE svg PUBLIC "-//W3C//DTD SVG 20010904//EN"
 "http://www.w3.org/TR/2001/REC-SVG-20010904/DTD/svg10.dtd">
<svg version="1.0" xmlns="http://www.w3.org/2000/svg"
 width="50.000000pt" height="50.000000pt" viewBox="0 0 50.000000 50.000000"
 preserveAspectRatio="xMidYMid meet">

<g transform="translate(0.000000,50.000000) scale(0.100000,-0.100000)"
fill="#000000" stroke="none">
<path d="M251 466 c-54 -30 -64 -90 -26 -151 13 -22 25 -52 25 -68 0 -34 36
-52 75 -37 18 7 25 17 25 37 0 16 12 46 25 68 14 22 25 50 25 62 0 77 -82 126
-149 89z m104 -31 c14 -13 25 -34 25 -46 0 -26 -46 -109 -60 -109 -13 0 -13
87 0 95 19 12 10 22 -20 22 -30 0 -39 -10 -20 -22 13 -8 13 -95 0 -95 -14 0
-60 83 -60 109 0 32 43 71 80 71 19 0 40 -9 55 -25z m-25 -190 c0 -10 -10 -15
-30 -15 -20 0 -30 5 -30 15 0 10 10 15 30 15 20 0 30 -5 30 -15z"/>
<path d="M372 184 c-29 -18 -56 -34 -60 -34 -4 0 -41 14 -81 31 -80 34 -107
34 -177 4 -50 -22 -26 -32 27 -11 21 9 48 16 59 16 33 0 170 -62 170 -76 0
-18 -6 -17 -66 1 -57 17 -64 18 -64 7 0 -5 27 -17 60 -27 63 -19 90 -12 90 24
0 19 105 85 120 76 19 -12 9 -24 -81 -91 l-91 -67 -85 27 c-89 29 -112 29
-153 -3 -34 -27 -18 -38 18 -12 38 26 43 26 132 -4 40 -14 79 -25 86 -25 19 0
188 128 198 150 10 23 -8 50 -33 49 -9 0 -40 -16 -69 -35z"/>
</g>
</svg>
