<?xml version="1.0" standalone="no"?>
<!DOCTYPE svg PUBLIC "-//W3C//DTD SVG 20010904//EN"
 "http://www.w3.org/TR/2001/REC-SVG-20010904/DTD/svg10.dtd">
<svg version="1.0" xmlns="http://www.w3.org/2000/svg"
 width="50.000000pt" height="50.000000pt" viewBox="0 0 50.000000 50.000000"
 preserveAspectRatio="xMidYMid meet">

<g transform="translate(0.000000,50.000000) scale(0.100000,-0.100000)"
fill="#000000" stroke="none">
<path d="M234 477 c-3 -8 -4 -45 -2 -83 3 -63 5 -69 26 -72 16 -3 22 -10 22
-28 0 -31 23 -31 48 0 15 20 30 25 73 28 l54 3 0 80 0 80 -108 3 c-84 2 -109
0 -113 -11z m206 -72 l0 -65 -51 0 c-40 0 -55 -5 -70 -22 l-18 -23 -1 23 c0
17 -6 22 -25 22 -24 0 -25 2 -25 65 l0 65 95 0 95 0 0 -65z"/>
<path d="M290 430 c0 -5 16 -10 35 -10 19 0 35 5 35 10 0 6 -16 10 -35 10 -19
0 -35 -4 -35 -10z"/>
<path d="M380 430 c0 -5 7 -10 15 -10 8 0 15 5 15 10 0 6 -7 10 -15 10 -8 0
-15 -4 -15 -10z"/>
<path d="M290 380 c0 -5 7 -10 15 -10 8 0 15 5 15 10 0 6 -7 10 -15 10 -8 0
-15 -4 -15 -10z"/>
<path d="M340 380 c0 -5 16 -10 35 -10 19 0 35 5 35 10 0 6 -16 10 -35 10 -19
0 -35 -4 -35 -10z"/>
<path d="M167 443 c-46 -12 -61 -140 -25 -214 28 -60 24 -73 -33 -99 -55 -26
-89 -61 -89 -91 0 -18 11 -19 200 -19 189 0 200 1 200 19 0 30 -34 65 -90 91
-55 26 -56 30 -35 98 10 31 -7 28 -22 -5 -27 -58 -14 -82 64 -122 23 -12 47
-30 53 -41 11 -20 8 -20 -170 -20 -178 0 -181 0 -170 20 6 11 30 29 53 41 56
28 77 48 77 72 0 24 -21 87 -30 87 -3 0 -6 30 -7 66 -2 71 16 104 57 104 11 0
20 5 20 10 0 10 -21 11 -53 3z"/>
</g>
</svg>
